<?xml version="1.0" encoding="UTF-8" standalone="no"?>
<svg
   width="51.16563"
   height="23.231653"
   viewBox="0 0 51.16563 23.231653"
   fill="none"
   version="1.1"
   id="svg20"
   sodipodi:docname="ae-symbol.svg"
   inkscape:version="1.2.1 (9c6d41e, 2022-07-14)"
   xmlns:inkscape="http://www.inkscape.org/namespaces/inkscape"
   xmlns:sodipodi="http://sodipodi.sourceforge.net/DTD/sodipodi-0.dtd"
   xmlns="http://www.w3.org/2000/svg"
   xmlns:svg="http://www.w3.org/2000/svg">
  <defs
     id="defs24" />
  <sodipodi:namedview
     id="namedview22"
     pagecolor="#ffffff"
     bordercolor="#000000"
     borderopacity="0.25"
     inkscape:showpageshadow="2"
     inkscape:pageopacity="0.0"
     inkscape:pagecheckerboard="0"
     inkscape:deskcolor="#d1d1d1"
     showgrid="false"
     inkscape:zoom="6.7166667"
     inkscape:cx="92.382134"
     inkscape:cy="13.846154"
     inkscape:window-width="1463"
     inkscape:window-height="762"
     inkscape:window-x="39"
     inkscape:window-y="38"
     inkscape:window-maximized="0"
     inkscape:current-layer="svg20" />
  <path
     fill-rule="evenodd"
     clip-rule="evenodd"
     d="m 29.579,9.1456009 -1.7297,-2.45349 C 30.7678,2.9897309 34.1454,3.4093326e-4 39.0723,3.4093326e-4 42.5237,-0.02514907 45.8194,1.3878009 48.1178,3.8783409 c 2.2983,2.49054 3.3768,5.81756 2.9599,9.1313601 h -14.278 v -2.7983 H 48.1429 C 47.4017,5.9268509 43.5637,2.7903709 39.0723,2.7987109 c -3.9777,0 -6.8201,2.79838 -9.4933,6.34689 z M 12.3668,2.5093326e-4 c 6.1002,0 10.0335,4.37349996674 14.1996,10.36115006674 4.1662,5.9876 7.4485,10.0684 12.4225,10.0684 3.4265,0.0079 6.5877,-1.7581 8.2564,-4.6124 h 3.2734 c -1.8884,4.4903 -6.4571,7.4281 -11.5298,7.414 -6.1002,0 -9.8741,-4.1852 -14.2085,-10.3713 C 20.446,6.6739309 17.3408,2.8012709 12.3668,2.8012709 c -5.1432,-0.03382 -9.34489,3.90876 -9.39325,8.8139301 0.04767,4.9055 4.24918,8.8487 9.39265,8.8152 4.0661,0 6.9714,-2.7932 9.7045,-6.3442 l 1.7556,2.4697 c -2.9817,3.6959 -6.4304,6.6755 -11.4595,6.6755 C 5.5917,23.273301 0.0595102,18.076901 0,11.615201 0.0602035,5.1540909 5.59219,-0.04158907 12.3668,2.5093326e-4 Z"
     fill="#f5274e"
     id="path18" />
</svg>
