<svg width="180" height="27" viewBox="0 0 180 27" fill="none" xmlns="http://www.w3.org/2000/svg">
<path d="M65.6434 21.2455C68.3616 21.2455 70.8611 20.152 72.0796 17.9025C73.2356 19.9958 75.3601 21.2455 78.547 21.2455C82.7023 21.2455 85.483 19.1835 85.483 15.9966V15.7155H82.1712V15.9654C82.1712 17.3714 81.1714 18.2462 78.5782 18.2462C75.4226 18.2462 74.2666 16.8715 74.1729 13.9971H85.4518C85.5455 13.4972 85.608 12.6848 85.608 11.8725C85.608 7.59216 82.7023 5.09268 78.5782 5.09268C76.2037 5.09268 74.2666 5.93625 72.9544 7.4047C71.8921 5.9675 70.08 5.09268 67.5805 5.09268C63.4564 5.09268 60.7694 7.59216 60.7694 11.0602V11.3726H64.05V11.0914C64.05 8.71692 65.206 8.06081 67.4555 8.06081C69.7051 8.06081 70.986 8.62319 70.986 11.2476V12.0287L65.5184 12.7161C62.2691 13.091 60.332 14.5282 60.332 17.0589C60.332 19.8708 62.5191 21.2455 65.6434 21.2455ZM78.422 7.93584C81.0777 7.93584 82.5149 9.09184 82.3899 11.7163H74.2041C74.3916 9.34179 75.4851 7.93584 78.422 7.93584ZM63.6126 16.7777C63.6126 15.653 64.2375 15.1843 66.0183 14.9656L71.0485 14.3407C71.0485 17.6525 68.674 18.5899 66.362 18.5899C64.4249 18.5899 63.6126 18.0587 63.6126 16.7777Z" fill="white"/>
<path d="M94.6425 20.9331C95.7047 20.9331 96.767 20.8081 97.4231 20.6519V17.9025H95.5173C93.424 17.9025 92.7366 17.6213 92.7366 15.9966V8.21703H97.4231V5.40512H92.7366V1.56217H90.1434L89.4248 5.40512H86.7691V8.21703H89.3623V16.1529C89.3623 19.6521 91.1744 20.9331 94.6425 20.9331Z" fill="white"/>
<path d="M106.063 21.2455C110.25 21.2455 113.03 19.1835 113.03 15.9966V15.7155H109.687V15.9654C109.687 17.3714 108.688 18.2462 106.094 18.2462C102.845 18.2462 101.814 16.809 101.689 13.9658H112.968C113.062 13.4972 113.155 12.6536 113.155 11.8413C113.155 7.59216 110.219 5.09268 106.032 5.09268C101.408 5.09268 98.5335 8.342 98.5335 13.1535C98.5335 17.9962 100.939 21.2455 106.063 21.2455ZM105.969 7.93584C108.625 7.93584 110.062 9.0606 109.937 11.7163H101.72C101.908 9.31055 103.033 7.93584 105.969 7.93584Z" fill="white"/>
<path d="M119.222 20.9331V10.8102C119.222 8.74817 119.972 7.96708 122.003 7.96708C123.971 7.96708 124.565 8.71692 124.565 10.779V11.4039H127.939V10.3728C127.939 7.46718 126.689 5.09268 123.44 5.09268C121.159 5.09268 119.722 6.34242 119.097 7.77962H118.941V5.31139H115.848V20.9331H119.222Z" fill="white"/>
<path d="M133.41 20.9331V11.9662C133.41 9.0606 134.66 7.99832 137.409 7.99832C140.252 7.99832 141.127 9.15433 141.127 11.935V20.9331H144.501V11.1852C144.501 7.65464 142.689 5.09268 138.659 5.09268C135.628 5.09268 133.972 6.65485 133.254 8.31076H133.129V5.40512H130.036V20.9331H133.41Z" fill="white"/>
<path d="M150.888 3.43678V0H147.513L147.545 3.43678H150.888ZM150.919 20.9331V5.31139H147.545V20.9331H150.919Z" fill="white"/>
<path d="M160.394 20.9331C161.456 20.9331 162.519 20.8081 163.175 20.6519V17.9025H161.269C159.176 17.9025 158.488 17.6213 158.488 15.9966V8.21703H163.175V5.40512H158.488V1.56217H155.895L155.176 5.40512H152.521V8.21703H155.114V16.1529C155.114 19.6521 156.926 20.9331 160.394 20.9331Z" fill="white"/>
<path d="M167.566 26.2445C170.003 26.2445 171.502 25.5259 172.658 22.7765L180.001 5.40512H176.283L173.439 12.9348L172.158 16.3091H171.908L170.503 12.9348L167.378 5.40512H163.66L170.253 20.5269L169.659 21.8392C169.159 22.9952 168.69 23.2139 167.347 23.2139H165.222V25.9633C165.754 26.1195 166.722 26.2445 167.566 26.2445Z" fill="white"/>
<path fill-rule="evenodd" clip-rule="evenodd" d="M29.579 11.1456L27.8493 8.69211C30.7678 4.98973 34.1454 2.00034 39.0723 2.00034C42.5237 1.97485 45.8194 3.3878 48.1178 5.87834C50.4161 8.36888 51.4946 11.6959 51.0777 15.0097H36.7997V12.2114H48.1429C47.4017 7.92685 43.5637 4.79037 39.0723 4.79871C35.0946 4.79871 32.2522 7.59709 29.579 11.1456ZM12.3668 2.00025C18.467 2.00025 22.4003 6.37375 26.5664 12.3614C30.7326 18.349 34.0149 22.4298 38.9889 22.4298C42.4154 22.4377 45.5766 20.6717 47.2453 17.8174H50.5187C48.6303 22.3077 44.0616 25.2455 38.9889 25.2314C32.8887 25.2314 29.1148 21.0462 24.7804 14.8601C20.446 8.67393 17.3408 4.80127 12.3668 4.80127C7.2236 4.76745 3.02191 8.71003 2.97355 13.6152C3.02122 18.5207 7.22273 22.4639 12.3662 22.4304C16.4323 22.4304 19.3376 19.6372 22.0707 16.0862L23.8263 18.5559C20.8446 22.2518 17.3959 25.2314 12.3668 25.2314C5.5917 25.2733 0.0595102 20.0769 0 13.6152C0.0602035 7.15409 5.59219 1.95841 12.3668 2.00025Z" fill="#F5274E"/>
</svg>
